# File created by Blade
# Date/Time:  Wed Jan 21 17:57:11 2015
# Frame Rate: 120.000 fps
#------------------------------------------------------
:FULLY-SPECIFIED
:DEGREES
953
root 19.641045 29.780800 -12.546362 -110.414811 -3.396038 -178.301232
Spine 66.036781 4.699568 -4.694648
Head 175.704069 -6.621435 178.237975
LeftShoulder 20.679844 -38.183295 6.961307
LeftArm 4.510723 0.878696 -14.404232
LeftForeArm 13.210471 0.000000 55.244582
LeftHand 3.813119 0.000000 1.414518
LeftHandThumb1 -26.253704 0.000000 33.147579
RightShoulder 15.640737 10.909988 -24.131682
RightArm 31.341436 31.977493 18.453981
RightForeArm -38.128347 -0.000000 84.916976
RightHand 5.706563 -0.000000 13.247486
RightHandThumb1 -24.326973 -0.000000 -32.862282
LeftUpLeg -82.083531 30.756599 7.526501
LeftLeg 4.863729 -0.000000 -0.000000
LeftFoot -22.693606 7.847350 -15.414435
LeftToeBase 24.721381 -0.000000 -0.000000
RightUpLeg -78.661099 -29.467575 -2.946208
RightLeg 1.679292 -0.000000 -0.000000
RightFoot -18.738022 -3.313118 25.828463
RightToeBase 18.038116 -0.000000 -0.000000
954
root 19.629874 29.778195 -12.539259 -110.422381 -3.521588 -178.313014
Spine 65.921320 4.807014 -4.791894
Head 175.509931 -6.861184 178.183575
LeftShoulder 20.634560 -38.124849 6.846266
LeftArm 4.100905 -0.606169 -14.638409
LeftForeArm 9.280322 -0.000000 55.453747
LeftHand 4.652016 -0.000000 2.000381
LeftHandThumb1 -26.253704 0.000000 33.147579
RightShoulder 15.811925 11.318326 -24.258121
RightArm 32.101836 31.795860 18.993582
RightForeArm -38.597295 -0.000000 84.343041
RightHand 5.668490 -0.000000 12.914895
RightHandThumb1 -24.326973 -0.000000 -32.862282
LeftUpLeg -82.071098 30.663789 7.725570
LeftLeg 4.941043 -0.000000 -0.000000
LeftFoot -22.523754 7.264261 -15.231088
LeftToeBase 24.613695 -0.000000 -0.000000
RightUpLeg -78.524413 -29.544551 -2.878142
RightLeg 1.518142 -0.000000 -0.000000
RightFoot -18.814069 -3.116007 25.983016
RightToeBase 18.214996 -0.000000 -0.000000
955
root 19.620080 29.774206 -12.534797 -110.459856 -3.665777 -178.311954
Spine 65.875411 5.026072 -4.745695
Head 175.362953 -7.751666 178.053872
LeftShoulder 20.710878 -38.131693 6.764583
LeftArm 3.719592 -2.047599 -15.047066
LeftForeArm 6.706364 -0.000000 55.814211
LeftHand 5.041526 -0.000000 3.490895
LeftHandThumb1 -26.253704 0.000000 33.147579
RightShoulder 15.871543 11.843561 -24.351542
RightArm 32.677981 31.505481 19.460575
RightForeArm -38.930584 -0.000000 83.808508
RightHand 5.654743 0.000000 12.777297
RightHandThumb1 -24.326973 -0.000000 -32.862282
LeftUpLeg -81.845476 30.502219 8.302519
LeftLeg 5.015870 -0.000000 -0.000000
LeftFoot -22.320777 6.855724 -15.147665
LeftToeBase 24.494741 -0.000000 -0.000000
RightUpLeg -78.413140 -29.628944 -2.705781
RightLeg 1.369048 -0.000000 -0.000000
RightFoot -18.756304 -2.892715 26.135702
RightToeBase 18.283596 -0.000000 -0.000000
956
root 19.612158 29.772285 -12.530852 -110.461282 -3.838084 -178.298725
Spine 65.728717 5.199267 -4.747391
Head 175.079375 -8.020907 178.059677
LeftShoulder 20.823410 -38.437020 6.524229
LeftArm 3.272311 -3.175521 -15.463008
LeftForeArm 4.170119 -0.000000 56.214198
LeftHand 5.530623 0.000000 4.462749
LeftHandThumb1 -26.253704 0.000000 33.147579
RightShoulder 16.043000 12.217324 -24.402288
RightArm 33.459231 31.329580 20.049211
RightForeArm -39.644701 -0.000000 83.193952
RightHand 5.576135 -0.000000 12.629296
RightHandThumb1 -24.326973 -0.000000 -32.862282
LeftUpLeg -81.559582 30.336491 9.038713
LeftLeg 5.025190 -0.000000 -0.000000
LeftFoot -22.001000 6.546927 -15.081590
LeftToeBase 24.386809 -0.000000 -0.000000
RightUpLeg -78.320387 -29.705213 -2.503471
RightLeg 1.186880 -0.000000 -0.000000
RightFoot -18.539091 -2.708323 26.298389
RightToeBase 18.312002 -0.000000 -0.000000
957
root 19.603368 29.768156 -12.528683 -110.497698 -3.977479 -178.296257
Spine 65.614424 5.379103 -4.780157
Head 174.811454 -7.944961 178.135958
LeftShoulder 20.978632 -38.473458 6.334018
LeftArm 2.795954 -4.559403 -15.789770
LeftForeArm 1.981023 -0.000000 56.705154
LeftHand 5.853691 -0.000000 5.582074
LeftHandThumb1 -26.253704 0.000000 33.147579
RightShoulder 16.154382 12.501949 -24.525385
RightArm 34.249044 31.100924 20.581954
RightForeArm -40.033029 -0.000000 82.459719
RightHand 5.563446 -0.000000 12.115954
RightHandThumb1 -24.326973 -0.000000 -32.862282
LeftUpLeg -81.318443 30.174398 9.676352
LeftLeg 5.098840 -0.000000 -0.000000
LeftFoot -21.632073 6.309036 -14.983865
LeftToeBase 23.956866 -0.000000 -0.000000
RightUpLeg -78.206118 -29.771565 -2.363810
RightLeg 1.037578 -0.000000 -0.000000
RightFoot -18.258019 -2.564609 26.349539
RightToeBase 18.925514 -0.000000 -0.000000
958
root 19.591786 29.762749 -12.528995 -110.523477 -4.129767 -178.309607
Spine 65.496861 5.533882 -4.778862
Head 174.544326 -8.185150 178.074070
LeftShoulder 21.303302 -38.743425 6.021946
LeftArm 2.125611 -5.741746 -16.153653
LeftForeArm -0.332771 -0.000000 57.249495
LeftHand 6.394483 -0.000000 6.688413
LeftHandThumb1 -26.253704 0.000000 33.147579
RightShoulder 16.242286 12.792348 -24.611166
RightArm 35.107626 30.831155 21.072909
RightForeArm -40.721017 0.000000 81.710543
RightHand 5.494400 0.000000 11.646067
RightHandThumb1 -24.326973 -0.000000 -32.862282
LeftUpLeg -81.146092 30.002236 10.239915
LeftLeg 5.172232 -0.000000 -0.000000
LeftFoot -21.231897 6.194027 -14.741887
LeftToeBase 23.708370 -0.000000 -0.000000
RightUpLeg -78.044092 -29.855881 -2.297126
RightLeg 0.856976 -0.000000 -0.000000
RightFoot -17.803410 -2.401890 26.669493
RightToeBase 18.855001 -0.000000 -0.000000
